<svg width="148" height="148" viewBox="0 0 148 148" fill="none" xmlns="http://www.w3.org/2000/svg">
<g id="Frame">
<g id="Group">
<path id="Vector" d="M127.798 55.1418C128.733 46.105 129.216 36.8905 127.502 27.9098C125.904 19.5567 122.198 11.0378 115.437 5.5944C112.273 3.04584 108.333 1.20472 104.222 1.20176C100.374 1.20176 96.7773 2.84456 94.0275 5.51448C87.2491 12.0886 86.9945 22.0402 88.2673 30.7899C89.5934 39.9334 93.2993 51.5721 85.9319 59.2059C82.4332 62.829 77.3479 63.2138 72.6119 62.6306C68.2636 62.0949 62.7847 61.2128 61.3076 56.3939C60.5824 54.0259 60.5913 51.4507 60.4552 48.9939C60.3101 46.4069 60.1858 43.8198 60.0023 41.2358C59.6471 36.2038 59.0699 31.1274 57.729 26.2374C55.6185 18.5414 51.2407 10.878 44.2521 6.66296C40.5936 4.47256 36.05 2.96 31.8438 4.44C28.1379 5.71576 25.3259 8.9096 23.7956 12.432C21.9544 16.6826 21.7236 21.383 21.614 25.9503C21.4956 31.2428 21.9663 36.5649 22.2386 41.8455C22.6648 50.0566 22.9904 58.2706 23.0112 66.4905C23.0348 76.2585 22.653 86.0679 21.5312 95.7945C20.9392 100.767 19.8292 105.702 19.4888 110.692C19.1572 115.55 19.4325 120.549 20.581 125.288C22.4103 132.871 27.2321 140.008 34.0993 143.838C42.636 148.595 52.2737 146.419 61.3313 144.747C66.6601 143.726 72.0909 143.338 77.5107 143.593C82.8801 143.868 88.2229 144.549 93.5983 144.706C101.531 144.939 109.958 143.818 116.609 139.144C119.738 136.944 122.293 134.002 123.77 130.453C125.546 126.179 125.753 121.467 125.546 116.896C125.315 111.734 124.77 106.596 124.601 101.424C124.42 95.8004 124.471 90.1764 124.755 84.5524C125.273 74.6867 126.783 64.9483 127.798 55.1418ZM124.151 70.1106C122.971 80.1366 122.511 90.2344 122.775 100.326C122.917 105.358 123.367 110.352 123.678 115.366C123.959 120.102 123.947 125.06 122.035 129.497C118.903 136.752 111.332 140.541 103.929 141.968C94.3827 143.806 84.6739 141.728 75.0835 141.473C70.1373 141.343 65.3155 141.876 60.467 142.779C55.6185 143.681 50.7316 144.791 45.7765 144.765C37.0771 144.72 29.7067 140.177 25.3703 132.691C20.6343 124.492 20.5188 114.454 22.061 105.355C23.615 96.1793 24.358 86.8523 24.6628 77.5313C25.1572 62.3909 24.2011 47.3215 23.5469 32.2048C23.4611 30.1979 23.3782 28.1851 23.4226 26.1753C23.5469 21.463 23.7867 16.4694 26.1132 12.2455C28.2296 8.39752 32.0806 5.51744 36.6183 5.9052C45.2319 6.64816 51.6018 14.7852 54.5736 22.2296C58.2144 31.3286 58.1612 41.3542 58.7739 50.986C59.0225 54.9228 59.5524 59.049 62.9416 61.5828C66.1147 63.9508 70.6849 64.5428 74.527 64.8388C78.6207 65.1348 82.8476 64.5428 86.1213 61.8788C89.0813 59.4812 90.8573 55.8937 91.6536 52.2262C93.7907 42.5411 89.3773 32.7198 89.4336 23.0022C89.4809 14.803 93.474 4.82184 102.609 3.38328C111.515 1.98616 118.696 9.93968 122.216 17.168C130.16 33.525 126.146 52.8774 124.151 70.1106Z" fill="#1E1E1E"/>
<path id="Vector_2" d="M103.165 10.8602C98.7784 11.5736 95.404 14.7082 94.4953 19.0742C93.3113 24.6982 96.0611 30.4347 97.5411 35.745C98.6748 40.1317 98.1006 44.9594 97.4612 49.3787C97.1652 51.5099 96.7656 53.6293 96.3246 55.7368C95.9013 57.7437 95.8243 59.6203 96.6442 61.5473C98.5742 66.0702 103.467 67.0085 107.922 66.973C109.941 66.9552 112.146 66.8279 113.789 65.5107C115.748 63.9449 116.538 61.0707 117.317 58.7797C120.65 48.9362 121.168 38.3574 118.812 28.2354C117 20.4654 113.2 9.23223 103.165 10.8602ZM116.583 54.609C115.979 56.8553 115.212 59.0545 114.289 61.1891C113.265 63.5423 111.746 64.6553 109.183 64.8832C105.154 65.2384 99.1543 64.8566 97.9526 60.1058C97.4582 58.1551 98.2042 56.1009 98.5653 54.1858C98.959 52.0842 99.2964 49.9707 99.5421 47.8454C100.013 43.7636 100.291 39.4657 99.2461 35.446C97.325 28.5492 92.2398 17.094 101.732 13.4206C104.805 12.2366 108.573 12.5652 111.039 14.874C114.295 17.9169 115.707 23.1087 116.784 27.2882C119.078 36.2597 119.009 45.6724 116.583 54.609ZM53.9551 57.0214C54.2778 52.469 53.5318 47.6471 52.8866 43.1538C52.2413 38.6606 51.4628 34.0726 50.4002 29.6207C49.4707 25.7076 48.1328 21.7738 45.7056 18.5148C43.681 15.8005 40.2562 13.2578 36.6776 14.208C32.948 15.2203 31.0802 18.944 30.4882 22.496C29.6979 27.0988 29.8548 31.9917 30.0679 36.6359C30.3195 42.1386 30.9559 47.6146 31.693 53.0728C32.0186 55.4793 32.2672 57.9302 32.7349 60.3159C33.0072 61.6953 33.4986 63.1309 34.4635 64.1817C34.5204 64.2444 34.5828 64.3019 34.65 64.3534C35.9435 65.3716 37.4946 65.271 39.0545 65.1526C41.3224 64.9951 43.5659 64.5871 45.7441 63.936C47.6947 63.344 49.746 62.6129 51.4776 61.5177C53.1234 60.4728 53.8219 58.904 53.9551 57.0214ZM52.1347 56.7521C51.8535 59.2888 49.7667 60.1294 47.6681 61.0086C45.6199 61.8576 43.4789 62.4626 41.2893 62.8112C39.7323 63.0628 36.947 63.7347 35.5321 62.7668C34.9105 62.0238 34.6441 60.9908 34.4517 60.0495C34.1794 58.6672 33.9041 56.243 33.6525 54.4255C33.096 50.4029 32.5869 46.3714 32.2376 42.325C31.87 38.2906 31.7139 34.2398 31.7699 30.189C31.841 26.4446 31.687 21.7382 34.0491 18.5858C36.4112 15.4334 40.2148 15.466 43.0238 18.0738C45.6405 20.498 47.0672 24.0944 48.0558 27.4481C50.2166 34.8777 51.3592 42.8667 51.9453 50.5686C52.0962 52.5874 52.3567 54.76 52.1347 56.7521ZM68.3111 77.0281C63.5303 78.5598 59.3555 81.5624 56.3825 85.6076C53.4095 89.6527 51.7903 94.5336 51.7558 99.5537C51.6717 105.113 53.6584 110.506 57.3295 114.682C60.775 118.64 65.727 121.973 71.1409 121.973C71.1685 121.974 71.1961 121.974 71.2238 121.973H71.277C76.9489 122.203 82.5997 121.15 87.8086 118.894C91.7188 117.21 94.5042 113.981 96.1736 110.112C99.7582 101.824 99.5184 90.647 93.1278 83.8005C86.968 77.2027 76.9602 74.2634 68.3111 77.0281ZM95.4129 106.492C94.1963 110.562 91.7928 114.508 87.9182 116.506C82.821 119.128 76.8241 120.17 71.1379 119.948C71.1083 119.947 71.0787 119.947 71.0491 119.948H71.0018C62.0448 119.948 54.6418 111.024 53.7065 102.635C53.192 98.0074 54.1438 93.3351 56.4275 89.2775C58.7113 85.2199 62.2116 81.9819 66.4345 80.0206C74.1778 76.4272 83.4249 77.9042 89.9961 83.247C93.0242 85.7068 95.3862 89.0871 96.1233 92.9618C96.951 97.4651 96.7076 102.1 95.4129 106.492Z" fill="#1E1E1E"/>
<path id="Vector_3" d="M67.5947 98.272C67.4763 99.3553 69.2346 100.344 69.3707 99.0061C69.6064 96.8995 69.4874 94.7684 69.0185 92.7013C68.7432 91.4729 67.0057 91.6534 67.3047 92.9973C67.693 94.7273 67.791 96.5098 67.5947 98.272ZM79.5827 97.8398C79.4762 98.9202 81.2374 99.9118 81.3587 98.5709C81.5704 96.4651 81.4253 94.3386 80.9295 92.2809C80.6335 91.0614 78.896 91.2361 79.2187 92.5769C79.633 94.2986 79.756 96.0775 79.5827 97.8398ZM75.0155 103.659C71.4427 103.727 68.2637 105.941 66.7038 109.103C66.2272 110.068 67.7871 111.432 68.3495 110.287C71.0816 104.748 79.0263 104.071 82.2201 109.576C82.892 110.728 84.3868 109.911 83.7001 108.75C81.9211 105.672 78.6296 103.6 75.0155 103.659Z" fill="#1E1E1E"/>
</g>
</g>
</svg>
